<svg width="217" height="92" viewBox="0 0 217 92" fill="none" xmlns="http://www.w3.org/2000/svg">
<rect y="80.5385" width="204.243" height="1.99558" fill="#B2AFAC"/>
<rect y="0.71524" width="204.243" height="1.99558" fill="#B2AFAC"/>
<g filter="url(#filter0_d_101_77)">
<path d="M70.189 50.068C69.253 50.12 68.564 50.224 68.122 50.38C67.706 50.536 67.42 50.835 67.264 51.277C67.108 51.719 67.03 52.434 67.03 53.422V68.866C67.03 69.854 67.108 70.569 67.264 71.011C67.42 71.453 67.706 71.752 68.122 71.908C68.564 72.064 69.253 72.168 70.189 72.22V73C68.785 72.922 66.822 72.883 64.3 72.883C61.284 72.883 59.074 72.922 57.67 73V72.22C58.606 72.168 59.282 72.064 59.698 71.908C60.14 71.752 60.439 71.453 60.595 71.011C60.751 70.569 60.829 69.854 60.829 68.866V51.745L51.898 73.195H51.274L42.226 51.784V67.774C42.226 68.918 42.33 69.789 42.538 70.387C42.746 70.959 43.123 71.375 43.669 71.635C44.241 71.895 45.099 72.09 46.243 72.22V73C45.125 72.922 43.643 72.883 41.797 72.883C40.367 72.883 39.236 72.922 38.404 73V72.22C39.262 72.09 39.886 71.895 40.276 71.635C40.692 71.375 40.965 70.959 41.095 70.387C41.251 69.815 41.329 68.944 41.329 67.774V53.422C41.329 52.434 41.251 51.719 41.095 51.277C40.939 50.835 40.64 50.536 40.198 50.38C39.782 50.224 39.106 50.12 38.17 50.068V49.288C39.522 49.366 41.589 49.405 44.371 49.405C45.723 49.405 46.88 49.366 47.842 49.288L54.316 64.849L60.829 49.405H64.3C66.822 49.405 68.785 49.366 70.189 49.288V50.068ZM93.0756 67.93C93.0756 69.412 93.1666 71.102 93.3486 73C91.6586 72.922 88.8116 72.883 84.8076 72.883C79.4516 72.883 75.4216 72.922 72.7176 73V72.22C73.6016 72.168 74.2386 72.064 74.6286 71.908C75.0186 71.752 75.2786 71.453 75.4086 71.011C75.5646 70.569 75.6426 69.854 75.6426 68.866V53.422C75.6426 52.434 75.5646 51.719 75.4086 51.277C75.2786 50.835 75.0056 50.536 74.5896 50.38C74.1996 50.224 73.5756 50.12 72.7176 50.068V49.288C75.4216 49.366 79.4516 49.405 84.8076 49.405C88.4476 49.405 91.0346 49.366 92.5686 49.288C92.3866 51.03 92.2956 52.59 92.2956 53.968C92.2956 54.982 92.3346 55.788 92.4126 56.386H91.5156C91.1256 54.15 90.4496 52.564 89.4876 51.628C88.5256 50.666 87.1996 50.185 85.5096 50.185H84.0666C83.3906 50.185 82.8836 50.25 82.5456 50.38C82.2076 50.484 81.9606 50.718 81.8046 51.082C81.6746 51.42 81.6096 51.966 81.6096 52.72V60.676H83.4426C84.6386 60.676 85.5356 60.26 86.1336 59.428C86.7576 58.57 87.1736 57.582 87.3816 56.464H88.2786C88.2006 57.348 88.1616 58.362 88.1616 59.506V61.066C88.1616 62.236 88.2396 63.77 88.3956 65.668H87.4986C87.3166 64.446 86.9006 63.445 86.2506 62.665C85.6266 61.859 84.6906 61.456 83.4426 61.456H81.6096V69.568C81.6096 70.322 81.6746 70.881 81.8046 71.245C81.9606 71.583 82.2076 71.817 82.5456 71.947C82.8836 72.051 83.3906 72.103 84.0666 72.103H85.7436C87.5896 72.103 89.0326 71.57 90.0726 70.504C91.1386 69.438 91.8796 67.644 92.2956 65.122H93.1926C93.1146 65.85 93.0756 66.786 93.0756 67.93ZM120.663 50.068C119.753 50.198 119.077 50.419 118.635 50.731C118.193 51.043 117.894 51.537 117.738 52.213C117.582 52.889 117.504 53.89 117.504 55.216V62.431C117.504 64.225 117.374 65.759 117.114 67.033C116.88 68.281 116.477 69.373 115.905 70.309C115.281 71.297 114.345 72.09 113.097 72.688C111.875 73.26 110.484 73.546 108.924 73.546C105.986 73.546 103.698 72.974 102.06 71.83C101.15 71.154 100.461 70.426 99.9932 69.646C99.5252 68.866 99.1872 67.93 98.9792 66.838C98.7972 65.72 98.7062 64.29 98.7062 62.548V53.422C98.7062 52.434 98.6282 51.719 98.4722 51.277C98.3422 50.835 98.0692 50.536 97.6532 50.38C97.2632 50.224 96.6392 50.12 95.7812 50.068V49.288C97.0812 49.366 99.0572 49.405 101.709 49.405C104.231 49.405 106.194 49.366 107.598 49.288V50.068C106.714 50.12 106.077 50.224 105.687 50.38C105.297 50.536 105.024 50.835 104.868 51.277C104.738 51.719 104.673 52.434 104.673 53.422V63.211C104.673 65.083 104.79 66.63 105.024 67.852C105.284 69.074 105.817 70.062 106.623 70.816C107.429 71.57 108.625 71.947 110.211 71.947C112.577 71.947 114.228 71.154 115.164 69.568C116.126 67.956 116.607 65.72 116.607 62.86V55.684C116.607 54.176 116.516 53.058 116.334 52.33C116.152 51.602 115.801 51.082 115.281 50.77C114.761 50.432 113.942 50.198 112.824 50.068V49.288C113.838 49.366 115.242 49.405 117.036 49.405C118.596 49.405 119.805 49.366 120.663 49.288V50.068Z" fill="#EEEDED"/>
</g>
<g filter="url(#filter1_d_101_77)">
<path d="M16.384 19.9552L31.0243 18.0441C33.6703 17.7039 33.8988 20.0985 31.3506 20.4167L16.7102 22.3277L16.8776 23.5453L31.518 21.6342C34.1467 21.2769 34.377 23.6697 31.8442 24.0068L17.2039 25.9179L17.3749 27.1621L32.0153 25.251C34.6459 24.9076 34.876 27.2992 32.3415 27.6236L17.7012 29.5347L17.8642 30.7205L32.5046 28.8094C35.0822 28.4846 35.3673 30.8718 32.8347 31.2101L18.1944 33.1212L18.3577 34.3091L32.9981 32.398C35.5733 32.0566 35.9106 34.433 33.3243 34.7706L18.6839 36.6817L18.847 37.8675L33.4874 35.9564C36.064 35.6253 36.4016 38.0041 33.8138 38.3305L19.5202 40.1963L19.6873 41.4112L33.9809 39.5453C36.5549 39.1952 36.8922 41.5715 34.3071 41.9179L18.4608 44.3292L19.1032 51.2043L21.8373 82.4398L10.7388 17.4653C10.543 15.8539 10.3776 13.765 12.5117 13.1949L30.0375 10.8677C32.6828 10.5224 32.9115 12.9182 30.3638 13.2403L15.728 15.1816L15.8907 16.3647L30.5306 14.4536C33.1709 14.1013 33.3988 16.4944 30.8571 16.8277L16.2167 18.7388L16.384 19.9552Z" fill="#A54DC5"/>
</g>
<g filter="url(#filter2_d_101_77)">
<path d="M48.271 17.742C49.467 17.742 50.481 17.872 51.313 18.132C52.171 18.392 52.977 18.743 53.731 19.185C54.017 19.341 54.264 19.471 54.472 19.575C54.706 19.679 54.901 19.731 55.057 19.731C55.291 19.731 55.473 19.601 55.603 19.341C55.733 19.055 55.837 18.613 55.915 18.015H56.812C56.682 19.575 56.617 22.279 56.617 26.127H55.72C55.434 23.787 54.68 21.954 53.458 20.628C52.236 19.276 50.637 18.6 48.661 18.6C47.361 18.6 46.308 18.886 45.502 19.458C44.722 20.03 44.332 20.771 44.332 21.681C44.332 22.383 44.54 23.033 44.956 23.631C45.398 24.203 45.97 24.736 46.672 25.23C47.374 25.724 48.401 26.374 49.753 27.18L50.611 27.687C52.171 28.571 53.445 29.377 54.433 30.105C55.421 30.807 56.24 31.652 56.89 32.64C57.54 33.602 57.865 34.694 57.865 35.916C57.865 38.048 56.981 39.686 55.213 40.83C53.445 41.974 51.118 42.546 48.232 42.546C46.984 42.546 45.905 42.403 44.995 42.117C44.085 41.857 43.162 41.493 42.226 41.025C41.576 40.713 41.121 40.557 40.861 40.557C40.627 40.557 40.445 40.7 40.315 40.986C40.185 41.246 40.081 41.675 40.003 42.273H39.106C39.21 40.817 39.262 37.645 39.262 32.757H40.159C40.341 35.513 41.082 37.684 42.382 39.27C43.708 40.856 45.567 41.649 47.959 41.649C49.129 41.649 50.143 41.35 51.001 40.752C51.859 40.154 52.288 39.27 52.288 38.1C52.288 37.06 51.885 36.163 51.079 35.409C50.273 34.655 48.895 33.706 46.945 32.562C44.475 31.158 42.577 29.819 41.251 28.545C39.951 27.271 39.301 25.776 39.301 24.06C39.301 22.032 40.133 20.472 41.797 19.38C43.487 18.288 45.645 17.742 48.271 17.742ZM69.7649 32.406V37.866C69.7649 38.854 69.8429 39.569 69.9989 40.011C70.1549 40.453 70.4409 40.752 70.8569 40.908C71.2989 41.064 71.9879 41.168 72.9239 41.22V42C71.4159 41.922 69.2189 41.883 66.3329 41.883C63.9149 41.883 62.0949 41.922 60.8729 42V41.22C61.7569 41.168 62.3939 41.064 62.7839 40.908C63.1739 40.752 63.4339 40.453 63.5639 40.011C63.7199 39.569 63.7979 38.854 63.7979 37.866V22.422C63.7979 21.434 63.7199 20.719 63.5639 20.277C63.4339 19.835 63.1609 19.536 62.7449 19.38C62.3549 19.224 61.7309 19.12 60.8729 19.068V18.288C62.0949 18.366 63.8369 18.405 66.0989 18.405L70.8179 18.366C71.3639 18.34 71.9879 18.327 72.6899 18.327C76.0699 18.327 78.5789 18.899 80.2169 20.043C81.8809 21.161 82.7129 22.76 82.7129 24.84C82.7129 26.946 81.8419 28.74 80.0999 30.222C78.3839 31.678 75.4979 32.406 71.4419 32.406H69.7649ZM72.1829 19.068C71.5069 19.068 70.9999 19.159 70.6619 19.341C70.3239 19.523 70.0899 19.848 69.9599 20.316C69.8299 20.784 69.7649 21.486 69.7649 22.422V31.626H71.0519C73.1059 31.626 74.5229 31.054 75.3029 29.91C76.0829 28.766 76.4729 27.219 76.4729 25.269C76.4729 23.163 76.1349 21.603 75.4589 20.589C74.8089 19.575 73.7169 19.068 72.1829 19.068ZM105.035 36.93C105.035 38.412 105.126 40.102 105.308 42C103.618 41.922 100.771 41.883 96.7666 41.883C91.4106 41.883 87.3806 41.922 84.6766 42V41.22C85.5606 41.168 86.1976 41.064 86.5876 40.908C86.9776 40.752 87.2376 40.453 87.3676 40.011C87.5236 39.569 87.6016 38.854 87.6016 37.866V22.422C87.6016 21.434 87.5236 20.719 87.3676 20.277C87.2376 19.835 86.9646 19.536 86.5486 19.38C86.1586 19.224 85.5346 19.12 84.6766 19.068V18.288C87.3806 18.366 91.4106 18.405 96.7666 18.405C100.407 18.405 102.994 18.366 104.528 18.288C104.346 20.03 104.255 21.59 104.255 22.968C104.255 23.982 104.294 24.788 104.372 25.386H103.475C103.085 23.15 102.409 21.564 101.447 20.628C100.485 19.666 99.1586 19.185 97.4686 19.185H96.0256C95.3496 19.185 94.8426 19.25 94.5046 19.38C94.1666 19.484 93.9196 19.718 93.7636 20.082C93.6336 20.42 93.5686 20.966 93.5686 21.72V29.676H95.4016C96.5976 29.676 97.4946 29.26 98.0926 28.428C98.7166 27.57 99.1326 26.582 99.3406 25.464H100.238C100.16 26.348 100.121 27.362 100.121 28.506V30.066C100.121 31.236 100.199 32.77 100.355 34.668H99.4576C99.2756 33.446 98.8596 32.445 98.2096 31.665C97.5856 30.859 96.6496 30.456 95.4016 30.456H93.5686V38.568C93.5686 39.322 93.6336 39.881 93.7636 40.245C93.9196 40.583 94.1666 40.817 94.5046 40.947C94.8426 41.051 95.3496 41.103 96.0256 41.103H97.7026C99.5486 41.103 100.992 40.57 102.032 39.504C103.098 38.438 103.839 36.644 104.255 34.122H105.152C105.074 34.85 105.035 35.786 105.035 36.93ZM120.259 19.068C119.375 19.12 118.738 19.224 118.348 19.38C117.958 19.536 117.685 19.835 117.529 20.277C117.399 20.719 117.334 21.434 117.334 22.422V38.334C117.334 39.14 117.399 39.738 117.529 40.128C117.685 40.518 117.932 40.778 118.27 40.908C118.608 41.038 119.115 41.103 119.791 41.103H121.312C123.028 41.103 124.471 40.492 125.641 39.27C126.811 38.022 127.604 36.02 128.02 33.264H128.917C128.839 34.122 128.8 35.188 128.8 36.462C128.8 38.074 128.891 39.92 129.073 42C127.383 41.922 124.536 41.883 120.532 41.883C115.176 41.883 111.146 41.922 108.442 42V41.22C109.326 41.168 109.963 41.064 110.353 40.908C110.743 40.752 111.003 40.453 111.133 40.011C111.289 39.569 111.367 38.854 111.367 37.866V22.422C111.367 21.434 111.289 20.719 111.133 20.277C111.003 19.835 110.73 19.536 110.314 19.38C109.924 19.224 109.3 19.12 108.442 19.068V18.288C109.768 18.366 111.822 18.405 114.604 18.405C117.048 18.405 118.933 18.366 120.259 18.288V19.068ZM159.215 19.068C158.331 19.12 157.694 19.224 157.304 19.38C156.914 19.536 156.641 19.835 156.485 20.277C156.355 20.719 156.29 21.434 156.29 22.422V37.866C156.29 38.854 156.355 39.569 156.485 40.011C156.641 40.453 156.914 40.752 157.304 40.908C157.72 41.064 158.357 41.168 159.215 41.22V42C158.019 41.922 156.121 41.883 153.521 41.883C150.895 41.883 148.854 41.922 147.398 42V41.22C148.282 41.168 148.919 41.064 149.309 40.908C149.699 40.752 149.959 40.453 150.089 40.011C150.245 39.569 150.323 38.854 150.323 37.866V30.3H140.3V37.866C140.3 38.854 140.365 39.569 140.495 40.011C140.651 40.453 140.924 40.752 141.314 40.908C141.73 41.064 142.367 41.168 143.225 41.22V42C141.795 41.922 139.754 41.883 137.102 41.883C134.554 41.883 132.656 41.922 131.408 42V41.22C132.292 41.168 132.929 41.064 133.319 40.908C133.709 40.752 133.969 40.453 134.099 40.011C134.255 39.569 134.333 38.854 134.333 37.866V22.422C134.333 21.434 134.255 20.719 134.099 20.277C133.969 19.835 133.696 19.536 133.28 19.38C132.89 19.224 132.266 19.12 131.408 19.068V18.288C132.656 18.366 134.554 18.405 137.102 18.405C139.754 18.405 141.795 18.366 143.225 18.288V19.068C142.341 19.12 141.704 19.224 141.314 19.38C140.924 19.536 140.651 19.835 140.495 20.277C140.365 20.719 140.3 21.434 140.3 22.422V29.52H150.323V22.422C150.323 21.434 150.245 20.719 150.089 20.277C149.959 19.835 149.686 19.536 149.27 19.38C148.88 19.224 148.256 19.12 147.398 19.068V18.288C148.854 18.366 150.895 18.405 153.521 18.405C156.121 18.405 158.019 18.366 159.215 18.288V19.068Z" fill="#E5E5E5"/>
</g>
<g filter="url(#filter3_d_101_77)">
<path d="M173.035 15.219C161.793 15.2195 155.729 30.9892 166.159 39.2366L134.716 43.0906L58.459 43.8455C57.0223 44.0892 133.898 47.7485 133.898 47.7485C133.113 49.8015 120.556 70.528 114.25 78.7753L133.898 54.8239L166.159 54.8239C160.833 66.6558 169.27 77.357 177.803 76.8347C185.395 76.3642 191.683 70.0899 191.144 61.6389C190.638 53.1223 181.808 47.3274 174.97 47.7485C174.97 47.7485 136.125 48.4651 136.081 47.7485C136.037 47.032 174.892 44.0879 174.892 44.0879C181.684 42.8751 187.094 36.8409 187.02 29.7764C191.225 29.6354 197.755 28.6868 199.961 25.7843C202.55 22.381 198.748 18.7526 195.942 20.5099C193.333 22.2006 191.825 23.7949 185.85 22.9433C183.339 18.0014 178.504 14.8942 173.036 15.2195L173.035 15.219ZM184.109 61.6388C184.357 65.6621 181.567 69.5684 177.803 69.8002C174.038 70.032 171.016 67.0315 170.768 63.0083C170.545 59.0359 173.028 55.0833 176.776 54.8239C180.517 54.6108 183.824 57.6457 184.109 61.6388ZM174.407 37.5009C170.04 37.7813 166.93 33.7735 166.644 29.7764C166.297 24.925 169.292 21.7659 173.036 21.5292C176.779 21.2925 180.889 23.227 181.199 29.0487C181.411 33.0498 178.148 37.2587 174.407 37.5014L174.407 37.5009Z" fill="#A54DC5"/>
</g>
<defs>
<filter id="filter0_d_101_77" x="27.17" y="46.288" width="94.4932" height="36.258" filterUnits="userSpaceOnUse" color-interpolation-filters="sRGB">
<feFlood flood-opacity="0" result="BackgroundImageFix"/>
<feColorMatrix in="SourceAlpha" type="matrix" values="0 0 0 0 0 0 0 0 0 0 0 0 0 0 0 0 0 0 127 0" result="hardAlpha"/>
<feOffset dx="-5" dy="3"/>
<feGaussianBlur stdDeviation="3"/>
<feColorMatrix type="matrix" values="0 0 0 0 0 0 0 0 0 0 0 0 0 0 0 0 0 0 0.161 0"/>
<feBlend mode="normal" in2="BackgroundImageFix" result="effect1_dropShadow_101_77"/>
<feBlend mode="normal" in="SourceGraphic" in2="effect1_dropShadow_101_77" result="shape"/>
</filter>
<filter id="filter1_d_101_77" x="10.6313" y="7.8338" width="41.4554" height="83.606" filterUnits="userSpaceOnUse" color-interpolation-filters="sRGB">
<feFlood flood-opacity="0" result="BackgroundImageFix"/>
<feColorMatrix in="SourceAlpha" type="matrix" values="0 0 0 0 0 0 0 0 0 0 0 0 0 0 0 0 0 0 127 0" result="hardAlpha"/>
<feOffset dx="10" dy="3"/>
<feGaussianBlur stdDeviation="3"/>
<feColorMatrix type="matrix" values="0 0 0 0 0 0 0 0 0 0 0 0 0 0 0 0 0 0 0.161 0"/>
<feBlend mode="normal" in2="BackgroundImageFix" result="effect1_dropShadow_101_77"/>
<feBlend mode="normal" in="SourceGraphic" in2="effect1_dropShadow_101_77" result="shape"/>
</filter>
<filter id="filter2_d_101_77" x="28.106" y="14.742" width="132.109" height="36.804" filterUnits="userSpaceOnUse" color-interpolation-filters="sRGB">
<feFlood flood-opacity="0" result="BackgroundImageFix"/>
<feColorMatrix in="SourceAlpha" type="matrix" values="0 0 0 0 0 0 0 0 0 0 0 0 0 0 0 0 0 0 127 0" result="hardAlpha"/>
<feOffset dx="-5" dy="3"/>
<feGaussianBlur stdDeviation="3"/>
<feColorMatrix type="matrix" values="0 0 0 0 0 0 0 0 0 0 0 0 0 0 0 0 0 0 0.161 0"/>
<feBlend mode="normal" in2="BackgroundImageFix" result="effect1_dropShadow_101_77"/>
<feBlend mode="normal" in="SourceGraphic" in2="effect1_dropShadow_101_77" result="shape"/>
</filter>
<filter id="filter3_d_101_77" x="58.4391" y="12.1962" width="158.384" height="75.5792" filterUnits="userSpaceOnUse" color-interpolation-filters="sRGB">
<feFlood flood-opacity="0" result="BackgroundImageFix"/>
<feColorMatrix in="SourceAlpha" type="matrix" values="0 0 0 0 0 0 0 0 0 0 0 0 0 0 0 0 0 0 127 0" result="hardAlpha"/>
<feOffset dx="10" dy="3"/>
<feGaussianBlur stdDeviation="3"/>
<feColorMatrix type="matrix" values="0 0 0 0 0 0 0 0 0 0 0 0 0 0 0 0 0 0 0.161 0"/>
<feBlend mode="normal" in2="BackgroundImageFix" result="effect1_dropShadow_101_77"/>
<feBlend mode="normal" in="SourceGraphic" in2="effect1_dropShadow_101_77" result="shape"/>
</filter>
</defs>
</svg>
